<svg width="415" height="680" viewBox="0 0 415 680" fill="none" xmlns="http://www.w3.org/2000/svg">
<g opacity="0.5">
<rect width="414.18" height="679.955" fill="white"/>
<path d="M256.869 212C269.477 212 281.569 217.008 290.484 225.923C299.399 234.838 304.407 246.93 304.407 259.537C304.407 272.145 299.399 284.237 290.484 293.152C281.569 302.067 269.477 307.075 256.87 307.075L256.87 297.567C266.956 297.567 276.629 293.561 283.761 286.429C290.893 279.297 294.899 269.624 294.899 259.537C294.899 249.451 290.893 239.778 283.761 232.646C276.629 225.514 266.956 221.507 256.869 221.507L256.869 212Z" fill="#DBA5F5" fill-opacity="0.1"/>
<path d="M256.869 238.981C262.321 238.981 267.55 241.147 271.405 245.002C275.26 248.857 277.426 254.086 277.426 259.538C277.426 264.99 275.26 270.218 271.405 274.074C267.55 277.929 262.321 280.094 256.869 280.094L256.869 275.983C261.231 275.983 265.414 274.25 268.498 271.166C271.582 268.082 273.315 263.899 273.315 259.538C273.315 255.176 271.582 250.993 268.498 247.909C265.414 244.825 261.231 243.092 256.869 243.092L256.869 238.981Z" fill="#DBA5F5" fill-opacity="0.2"/>
<path d="M256.869 271.101C253.803 271.101 250.862 269.882 248.693 267.714C246.525 265.545 245.306 262.604 245.306 259.538C245.306 256.471 246.525 253.53 248.693 251.361C250.862 249.193 253.803 247.974 256.869 247.974L256.869 250.287C254.416 250.287 252.063 251.262 250.328 252.996C248.594 254.731 247.619 257.084 247.619 259.538C247.619 261.991 248.594 264.344 250.328 266.079C252.063 267.813 254.416 268.788 256.869 268.788L256.869 271.101Z" fill="#DBA5F5" fill-opacity="0.1"/>
<path d="M256.87 255.041C258.062 255.041 259.206 255.515 260.049 256.358C260.893 257.201 261.366 258.345 261.366 259.538C261.366 260.73 260.893 261.874 260.049 262.717C259.206 263.561 258.062 264.034 256.87 264.034L256.87 263.135C257.824 263.135 258.739 262.756 259.413 262.081C260.088 261.407 260.467 260.492 260.467 259.538C260.467 258.584 260.088 257.669 259.413 256.994C258.739 256.319 257.824 255.94 256.87 255.94L256.87 255.041Z" fill="#DBA5F5" fill-opacity="0.2"/>
<path d="M256.227 290.373C248.049 290.373 240.206 287.124 234.423 281.341C228.641 275.559 225.392 267.715 225.392 259.538C225.392 251.36 228.641 243.516 234.423 237.734C240.206 231.951 248.049 228.702 256.227 228.702L256.227 234.869C249.685 234.869 243.41 237.468 238.784 242.095C234.158 246.721 231.559 252.995 231.559 259.538C231.559 266.08 234.158 272.354 238.784 276.98C243.41 281.607 249.685 284.206 256.227 284.206L256.227 290.373Z" fill="#DBA5F5" fill-opacity="0.2"/>
<circle cx="321.809" cy="648.478" r="29.4775" stroke="#6979F8" stroke-opacity="0.1" stroke-width="4"/>
<circle cx="213.538" cy="606.206" r="10.2056" stroke="#6979F8" stroke-opacity="0.2" stroke-width="4"/>
<circle cx="105.837" cy="92.5054" r="90.5054" stroke="#6979F8" stroke-opacity="0.05" stroke-width="4"/>
<path d="M367.488 441L394.47 487.734H340.506L367.488 441Z" fill="#00C48C" fill-opacity="0.05"/>
<path d="M192.932 527L202.111 542.899H183.752L192.932 527Z" fill="#00C48C" fill-opacity="0.1"/>
<path d="M386.186 435L389.524 440.782H382.848L386.186 435Z" fill="#00C48C" fill-opacity="0.4"/>
<path d="M389.392 569L403.3 593.09H375.483L389.392 569Z" fill="#00C48C" fill-opacity="0.05"/>
<path d="M291.544 547L294.325 551.818H288.762L291.544 547Z" fill="#00C48C" fill-opacity="0.3"/>
<path d="M53.3917 580L67.3001 604.09H39.4834L53.3917 580Z" fill="#00C48C" fill-opacity="0.15"/>
<path d="M60.3982 606L66.5178 616.6H54.2785L60.3982 606Z" fill="#00C48C" fill-opacity="0.3"/>
<path d="M225.392 555L239.3 579.09H211.484L225.392 555Z" fill="#00C48C" fill-opacity="0.1"/>
<path d="M407.307 206.908C407.491 206.537 408.021 206.537 408.204 206.908L409.527 209.59C409.6 209.737 409.741 209.84 409.904 209.863L412.863 210.293C413.273 210.353 413.437 210.857 413.14 211.146L410.999 213.233C410.881 213.348 410.827 213.513 410.855 213.676L411.36 216.623C411.43 217.031 411.002 217.342 410.635 217.15L407.988 215.758C407.843 215.682 407.669 215.682 407.523 215.758L404.877 217.15C404.51 217.342 404.081 217.031 404.151 216.623L404.657 213.676C404.684 213.513 404.631 213.348 404.513 213.233L402.372 211.146C402.075 210.857 402.239 210.353 402.649 210.293L405.608 209.863C405.771 209.84 405.911 209.737 405.984 209.59L407.307 206.908Z" fill="#FFCF5C" fill-opacity="0.6"/>
<circle cx="45.8543" cy="251.522" r="29.4775" transform="rotate(-180 45.8543 251.522)" stroke="#6979F8" stroke-opacity="0.1" stroke-width="4"/>
<path d="M35.3318 373.666L8.83286 388.965L8.83286 358.367L35.3318 373.666Z" fill="#00C48C" fill-opacity="0.1"/>
<path d="M152.356 624.092C152.173 624.463 151.643 624.463 151.46 624.092L150.136 621.41C150.064 621.263 149.923 621.16 149.76 621.137L146.801 620.707C146.391 620.647 146.227 620.143 146.524 619.854L148.665 617.767C148.783 617.652 148.837 617.487 148.809 617.324L148.303 614.377C148.233 613.969 148.662 613.658 149.029 613.85L151.675 615.242C151.821 615.318 151.995 615.318 152.141 615.242L154.787 613.85C155.154 613.658 155.583 613.969 155.513 614.377L155.007 617.324C154.979 617.487 155.033 617.652 155.151 617.767L157.292 619.854C157.589 620.143 157.425 620.647 157.015 620.707L154.056 621.137C153.893 621.16 153.753 621.263 153.68 621.41L152.356 624.092Z" fill="#FFCF5C" fill-opacity="0.6"/>
<path d="M349.889 220.817C350.256 220.074 351.316 220.074 351.682 220.817L354.801 227.136C354.947 227.431 355.228 227.635 355.554 227.683L362.527 228.696C363.347 228.815 363.675 229.823 363.081 230.402L358.035 235.32C357.8 235.55 357.692 235.881 357.748 236.205L358.939 243.15C359.079 243.967 358.222 244.59 357.488 244.205L351.251 240.926C350.96 240.772 350.612 240.772 350.32 240.926L344.083 244.205C343.35 244.59 342.492 243.967 342.632 243.15L343.824 236.205C343.879 235.881 343.772 235.55 343.536 235.32L338.49 230.402C337.897 229.823 338.224 228.815 339.044 228.696L346.018 227.683C346.343 227.635 346.625 227.431 346.771 227.136L349.889 220.817Z" fill="#FFCF5C" fill-opacity="0.1"/>
<path d="M340.307 558.908C340.491 558.537 341.021 558.537 341.204 558.908L342.527 561.59C342.6 561.737 342.741 561.84 342.904 561.863L345.863 562.293C346.273 562.353 346.437 562.857 346.14 563.146L343.999 565.233C343.881 565.348 343.827 565.513 343.855 565.676L344.36 568.623C344.43 569.031 344.002 569.342 343.635 569.15L340.988 567.758C340.843 567.682 340.669 567.682 340.523 567.758L337.877 569.15C337.51 569.342 337.081 569.031 337.151 568.623L337.657 565.676C337.684 565.513 337.631 565.348 337.513 565.233L335.372 563.146C335.075 562.857 335.239 562.353 335.649 562.293L338.608 561.863C338.771 561.84 338.911 561.737 338.984 561.59L340.307 558.908Z" fill="#FFCF5C" fill-opacity="0.2"/>
<path d="M296.786 555L301.034 563.607L310.532 564.987L303.659 571.687L305.282 581.147L296.786 576.681L288.29 581.147L289.912 571.687L283.039 564.987L292.538 563.607L296.786 555Z" fill="#FFCF5C" fill-opacity="0.2"/>
<path d="M34.7558 514L36.6437 517.825L40.8653 518.439L37.8106 521.417L38.5317 525.621L34.7558 523.636L30.9798 525.621L31.701 521.417L28.6462 518.439L32.8678 517.825L34.7558 514Z" fill="#FFCF5C" fill-opacity="0.2"/>
<path d="M199.859 309L203.54 316.46L211.772 317.656L205.816 323.462L207.222 331.661L199.859 327.79L192.496 331.661L193.902 323.462L187.945 317.656L196.177 316.46L199.859 309Z" fill="#FFCF5C" fill-opacity="0.1"/>
<path d="M342.901 276L343.657 277.53L345.345 277.776L344.123 278.967L344.412 280.648L342.901 279.854L341.391 280.648L341.679 278.967L340.458 277.776L342.146 277.53L342.901 276Z" fill="#FFCF5C" fill-opacity="0.5"/>
<path d="M381.113 474L382.813 477.443L386.612 477.995L383.863 480.675L384.512 484.459L381.113 482.672L377.715 484.459L378.364 480.675L375.615 477.995L379.414 477.443L381.113 474Z" fill="#FFCF5C" fill-opacity="0.3"/>
<path d="M110.792 362L112.397 365.252L115.986 365.773L113.389 368.304L114.002 371.878L110.792 370.191L107.583 371.878L108.196 368.304L105.599 365.773L109.188 365.252L110.792 362Z" fill="#FFCF5C" fill-opacity="0.3"/>
<path d="M247.113 434L248.813 437.443L252.612 437.995L249.863 440.675L250.512 444.459L247.113 442.672L243.715 444.459L244.364 440.675L241.615 437.995L245.414 437.443L247.113 434Z" fill="#FFCF5C" fill-opacity="0.2"/>
<path d="M72.9016 401L73.6568 402.53L75.3455 402.776L74.1235 403.967L74.412 405.648L72.9016 404.854L71.3913 405.648L71.6797 403.967L70.4578 402.776L72.1464 402.53L72.9016 401Z" fill="#FFCF5C" fill-opacity="0.5"/>
</g>
</svg>
